
<svg id="Layer_2" xmlns="http://www.w3.org/2000/svg" width="400" height="400" xmlns:xlink="http://www.w3.org/1999/xlink" viewBox="0 0 400 400">
  <defs>
    <style>
      .cls-1 {
        font-family: MyriadPro-Regular, 'Myriad Pro';
        font-size: 120.03px;
      }

      .cls-2 {
        fill: url(#linear-gradient-2);
      }

      .cls-3 {
        fill: #fff;
      }

      .cls-4 {
        fill: url(#linear-gradient-3);
        opacity: .99;
        stroke: #4d4d4d;
        stroke-width: 3px;
      }

      .cls-4, .cls-5 {
        stroke-miterlimit: 10;
      }

      .cls-5 {
        fill: url(#radial-gradient);
        stroke: #662d91;
      }

      .cls-6 {
        fill: url(#linear-gradient);
      }
    </style>
    <linearGradient id="linear-gradient" x1="200" y1="-2.45" x2="200" y2="394.55" gradientUnits="userSpaceOnUse">
      <stop offset="0" stop-color="#fff"/>
      <stop offset="0" stop-color="#fefefe"/>
      <stop offset="0" stop-color="#d6d6d6"/>
      <stop offset=".01" stop-color="#b6b6b6"/>
      <stop offset=".02" stop-color="#9c9c9c"/>
      <stop offset=".02" stop-color="#8a8a8a"/>
      <stop offset=".03" stop-color="#7f7f7f"/>
      <stop offset=".04" stop-color="#7c7c7c"/>
      <stop offset=".13" stop-color="#757575"/>
      <stop offset=".13" stop-color="#747474"/>
      <stop offset=".25" stop-color="#4a4a4a"/>
      <stop offset=".36" stop-color="#2a2a2a"/>
      <stop offset=".48" stop-color="#121212"/>
      <stop offset=".58" stop-color="#040404"/>
      <stop offset=".67" stop-color="#000"/>
    </linearGradient>
    <linearGradient id="linear-gradient-2" x1="214" y1="140.07" x2="214" y2="288.97" gradientTransform="translate(414 416) rotate(-180)" gradientUnits="userSpaceOnUse">
      <stop offset=".06" stop-color="#7c7c7c"/>
      <stop offset=".1" stop-color="#9e9e9e"/>
      <stop offset=".15" stop-color="#c1c1c1"/>
      <stop offset=".19" stop-color="#dcdcdc"/>
      <stop offset=".24" stop-color="#efefef"/>
      <stop offset=".29" stop-color="#fbfbfb"/>
      <stop offset=".34" stop-color="#fff"/>
    </linearGradient>
    <linearGradient id="linear-gradient-3" x1="200" y1="122.54" x2="200" y2="274.44" gradientUnits="userSpaceOnUse">
      <stop offset=".33" stop-color="#000"/>
      <stop offset=".61" stop-color="#000001"/>
      <stop offset=".71" stop-color="#030008"/>
      <stop offset=".78" stop-color="#080014"/>
      <stop offset=".84" stop-color="#100025"/>
      <stop offset=".89" stop-color="#19003b"/>
      <stop offset=".93" stop-color="#250055"/>
      <stop offset=".95" stop-color="#2d005e"/>
      <stop offset=".99" stop-color="#420077"/>
      <stop offset="1" stop-color="#49007f"/>
    </linearGradient>
    <radialGradient id="radial-gradient" cx="199.48" cy="203.21" fx="199.48" fy="159.85" r="54.48" gradientTransform="translate(0 -77.61) scale(1 1.38)" gradientUnits="userSpaceOnUse">
      <stop offset=".32" stop-color="#000"/>
      <stop offset=".62" stop-color="#23003d"/>
      <stop offset=".87" stop-color="#3e006c"/>
      <stop offset="1" stop-color="#49007f"/>
    </radialGradient>
  </defs>
  <g>
    <path class="cls-6" d="M200,398.5C90.55,398.5,1.5,309.45,1.5,200S90.55,1.5,200,1.5s198.5,89.05,198.5,198.5-89.05,198.5-198.5,198.5Z"/>
    <path d="M200,3c26.6,0,52.4,5.21,76.68,15.48,23.46,9.92,44.53,24.13,62.62,42.22,18.09,18.09,32.3,39.16,42.22,62.62,10.27,24.29,15.48,50.08,15.48,76.68s-5.21,52.4-15.48,76.68c-9.92,23.46-24.13,44.53-42.22,62.62s-39.16,32.3-62.62,42.22c-24.29,10.27-50.08,15.48-76.68,15.48s-52.4-5.21-76.68-15.48c-23.46-9.92-44.53-24.13-62.62-42.22-18.09-18.09-32.3-39.16-42.22-62.62-10.27-24.29-15.48-50.08-15.48-76.68s5.21-52.4,15.48-76.68c9.92-23.46,24.13-44.53,42.22-62.62,18.09-18.09,39.16-32.3,62.62-42.22,24.29-10.27,50.08-15.48,76.68-15.48M200,0C89.54,0,0,89.54,0,200s89.54,200,200,200,200-89.54,200-200S310.46,0,200,0h0Z"/>
  </g>
  <g id="side8">
    <g>
      <path class="cls-2" d="M200,274.45c-41.05,0-74.45-33.4-74.45-74.45s33.4-74.45,74.45-74.45,74.45,33.4,74.45,74.45-33.4,74.45-74.45,74.45Z"/>
      <path class="cls-3" d="M200,127.05c40.22,0,72.95,32.72,72.95,72.95s-32.72,72.95-72.95,72.95-72.95-32.72-72.95-72.95,32.72-72.95,72.95-72.95M200,124.05c-41.95,0-75.95,34-75.95,75.95s34,75.95,75.95,75.95,75.95-34,75.95-75.95-34-75.95-75.95-75.95h0Z"/>
    </g>
    <text class="cls-1" transform="translate(168.24 240.74) scale(1.03 1)"><tspan x="0" y="0">8</tspan></text>
  </g>
  <g id="sideanswer">
    <circle class="cls-4" cx="200" cy="200" r="75.95"/>
    <polyline class="cls-5" points="150.38 169.37 250.38 169.37 200.25 251.39 150.63 169.37"/>
  </g>
</svg>