<?xml version="1.0" encoding="UTF-8"?>
<svg id="Layer_1" xmlns="http://www.w3.org/2000/svg" width="400" height="400" xmlns:xlink="http://www.w3.org/1999/xlink" viewBox="0 0 400 400">
  <defs>
    <style>
      .cls-1 {
        fill: url(#linear-gradient-2);
      }

      .cls-2 {
        fill: #fff;
      }

      .cls-3 {
        fill: none;
      }

      .cls-4 {
        fill: url(#linear-gradient);
      }
    </style>
    <linearGradient id="linear-gradient" x1="200" y1="-2.45" x2="200" y2="394.55" gradientUnits="userSpaceOnUse">
      <stop offset="0" stop-color="#fff"/>
      <stop offset="0" stop-color="#fefefe"/>
      <stop offset="0" stop-color="#d6d6d6"/>
      <stop offset=".01" stop-color="#b6b6b6"/>
      <stop offset=".02" stop-color="#9c9c9c"/>
      <stop offset=".02" stop-color="#8a8a8a"/>
      <stop offset=".03" stop-color="#7f7f7f"/>
      <stop offset=".04" stop-color="#7c7c7c"/>
      <stop offset=".13" stop-color="#757575"/>
      <stop offset=".13" stop-color="#747474"/>
      <stop offset=".25" stop-color="#4a4a4a"/>
      <stop offset=".36" stop-color="#2a2a2a"/>
      <stop offset=".48" stop-color="#121212"/>
      <stop offset=".58" stop-color="#040404"/>
      <stop offset=".67" stop-color="#000"/>
    </linearGradient>
    <linearGradient id="linear-gradient-2" x1="214.44" y1="140.07" x2="214.44" y2="288.97" gradientTransform="translate(414.44 416) rotate(-180)" gradientUnits="userSpaceOnUse">
      <stop offset=".06" stop-color="#7c7c7c"/>
      <stop offset=".1" stop-color="#9e9e9e"/>
      <stop offset=".15" stop-color="#c1c1c1"/>
      <stop offset=".19" stop-color="#dcdcdc"/>
      <stop offset=".24" stop-color="#efefef"/>
      <stop offset=".29" stop-color="#fbfbfb"/>
      <stop offset=".34" stop-color="#fff"/>
    </linearGradient>
  </defs>
  <g>
    <path class="cls-4" d="M200,398.5C90.55,398.5,1.5,309.45,1.5,200S90.55,1.5,200,1.5s198.5,89.05,198.5,198.5-89.05,198.5-198.5,198.5Z"/>
    <path d="M200,3c26.6,0,52.4,5.21,76.68,15.48,23.46,9.92,44.53,24.13,62.62,42.22,18.09,18.09,32.3,39.16,42.22,62.62,10.27,24.29,15.48,50.08,15.48,76.68s-5.21,52.4-15.48,76.68c-9.92,23.46-24.13,44.53-42.22,62.62s-39.16,32.3-62.62,42.22c-24.29,10.27-50.08,15.48-76.68,15.48s-52.4-5.21-76.68-15.48c-23.46-9.92-44.53-24.13-62.62-42.22-18.09-18.09-32.3-39.16-42.22-62.62-10.27-24.29-15.48-50.08-15.48-76.68s5.21-52.4,15.48-76.68c9.92-23.46,24.13-44.53,42.22-62.62,18.09-18.09,39.16-32.3,62.62-42.22,24.29-10.27,50.08-15.48,76.68-15.48M200,0C89.54,0,0,89.54,0,200s89.54,200,200,200,200-89.54,200-200S310.46,0,200,0h0Z"/>
  </g>
  <g id="side8">
    <g>
      <path class="cls-1" d="M200,274.45c-41.05,0-74.45-33.4-74.45-74.45s33.4-74.45,74.45-74.45,74.45,33.4,74.45,74.45-33.4,74.45-74.45,74.45Z"/>
      <path class="cls-2" d="M200,127.05c40.22,0,72.95,32.72,72.95,72.95s-32.72,72.95-72.95,72.95-72.95-32.72-72.95-72.95,32.72-72.95,72.95-72.95M200,124.05c-41.95,0-75.95,34-75.95,75.95s34,75.95,75.95,75.95,75.95-34,75.95-75.95-34-75.95-75.95-75.95h0Z"/>
    </g>
    <g>
      <rect class="cls-3" x="162.91" y="155.52" width="74.18" height="88.96"/>
      <path d="M172.82,220.94c0-9.84,6.07-16.81,15.98-20.89l-.12-.36c-8.92-4.08-12.76-10.8-12.76-17.53,0-12.36,10.77-20.77,24.89-20.77,15.6,0,23.41,9.48,23.41,19.21,0,6.6-3.34,13.68-13.25,18.25v.36c10.03,3.84,16.22,10.68,16.22,20.17,0,13.56-12.01,22.69-27.37,22.69-16.84,0-27-9.72-27-21.13ZM216.16,220.46c0-9.48-6.81-14.04-17.71-17.05-9.41,2.64-14.49,8.64-14.49,16.09-.37,7.92,5.82,14.88,16.1,14.88s16.1-5.88,16.1-13.92ZM186.19,181.44c0,7.8,6.07,12,15.36,14.4,6.94-2.28,12.26-7.08,12.26-14.16,0-6.24-3.84-12.72-13.62-12.72-9.04,0-13.99,5.76-13.99,12.48Z"/>
    </g>
  </g>
</svg>